<svg xmlns="http://www.w3.org/2000/svg" width="100%" height="100%" viewBox="0 0 1500 175" fill-rule="evenodd" stroke-linejoin="round" stroke-miterlimit="2" xmlns:v="https://vecta.io/nano"><g fill-rule="nonzero"><path d="M201.03 135.56c-7.585.192-15.054-1.914-21.42-6.042a31.01 31.01 0 0 1-12.49-16.565l13.005-4.793c1.805 4.17 4.756 7.743 8.508 10.305a22.44 22.44 0 0 0 12.912 3.793c4.407.232 8.76-1.082 12.302-3.715a12.95 12.95 0 0 0 4.59-10.648c.02-1.87-.414-3.72-1.264-5.386-.737-1.493-1.7-2.862-2.857-4.06-1.467-1.335-3.13-2.436-4.934-3.263-2.217-1.11-4.043-1.952-5.51-2.53s-3.622-1.358-6.448-2.326l-7.993-2.935a59.08 59.08 0 0 1-6.979-3.513 25.55 25.55 0 0 1-6.526-4.933c-1.634-1.94-2.95-4.128-3.903-6.48-3.762-9.148-1.237-19.744 6.245-26.214 5.33-4.694 12.557-7.04 21.685-7.04 7.64 0 13.916 1.68 18.83 5.043 4.782 3.174 8.294 7.936 9.914 13.442l-12.77 4.262c-1.302-2.888-3.5-5.29-6.245-6.853-3.306-1.82-7.048-2.707-10.82-2.56-3.71-.215-7.386.812-10.445 2.92a9.81 9.81 0 0 0-3.778 8.259 8.62 8.62 0 0 0 2.919 6.385 20.32 20.32 0 0 0 6.12 4.122c2.124.9 5.37 2.076 9.71 3.59l5.917 2.2c1.234.5 3.123 1.296 5.652 2.45 1.99.884 3.907 1.928 5.73 3.123 1.63 1.175 3.194 2.442 4.683 3.793 1.602 1.394 2.972 3.033 4.06 4.856 1.036 1.894 1.838 3.907 2.388 5.995.682 2.444 1.018 4.972 1 7.5 0 8.7-2.97 15.508-8.914 20.42s-13.567 7.374-22.872 7.384zm85.274-1.56l-31.927-93.16h14.894l21.155 64.916a103.29 103.29 0 0 1 2.935 10.648 99.01 99.01 0 0 1 2.92-10.648l20.89-64.916h14.77l-31.802 93.128-13.833.03zm73.83 0V40.84h57.766v13.036h-43.917V79.42h28.336v13.036h-28.336v28.415h46.837v13.036l-60.686.094zm95.923 0V40.84h13.848v79.826H515.4v13.302l-59.342.03zm111.488-79.826v79.795h-13.833V54.143h-26.338V40.84h66.478v13.302l-26.307.03zM622.502 134V40.84h57.766v13.036h-43.933V79.42h28.336v13.036h-28.336v28.415h46.837v13.036l-60.67.094z" fill="#4a4a55"/><path d="M136.224 23.127C119.987-.104 87.92-6.99 64.735 7.78L24.017 33.728A46.7 46.7 0 0 0 2.91 64.952a49.24 49.24 0 0 0 4.839 31.6C4.265 101.837 1.89 107.776.77 114.007a49.76 49.76 0 0 0 8.508 37.657c16.237 23.23 48.305 30.116 71.49 15.347l40.718-25.84c11.092-7 18.756-18.326 21.107-31.225 1.94-10.773.23-21.89-4.855-31.584a47.05 47.05 0 0 0 6.994-17.454 49.82 49.82 0 0 0-8.508-37.657" fill="#ff3e00"/><path d="M60.753 153.912a32.43 32.43 0 0 1-34.722-12.88c-4.68-6.548-6.522-14.716-5.105-22.638.23-1.277.554-2.534.968-3.763l.765-2.342 2.092 1.56a52.74 52.74 0 0 0 15.878 7.9l1.56.453-.14 1.56c-.15 2.14.452 4.267 1.702 6.01 2.327 3.345 6.515 4.895 10.46 3.872a9.14 9.14 0 0 0 2.498-1.093l40.654-25.948c2.018-1.27 3.41-3.335 3.825-5.683a9.01 9.01 0 0 0-1.561-6.822c-2.327-3.345-6.516-4.896-10.46-3.872a8.92 8.92 0 0 0-2.498 1.093l-15.612 9.914a29.85 29.85 0 0 1-8.259 3.622c-13.077 3.378-26.954-1.773-34.66-12.865-4.666-6.553-6.496-14.72-5.074-22.638 1.394-7.778 6.005-14.62 12.693-18.828l40.78-25.948a29.75 29.75 0 0 1 8.213-3.622c13.094-3.402 27 1.76 34.706 12.88a29.9 29.9 0 0 1 5.121 22.638 31.62 31.62 0 0 1-.968 3.794l-.78 2.342-2.076-1.562c-4.82-3.537-10.204-6.23-15.925-7.962l-1.56-.453.14-1.56c.18-2.15-.406-4.297-1.655-6.058-2.34-3.286-6.495-4.79-10.397-3.762a8.91 8.91 0 0 0-2.498 1.093l-40.733 25.9a8.51 8.51 0 0 0-3.825 5.667 9.12 9.12 0 0 0 1.561 6.838c2.316 3.314 6.462 4.86 10.382 3.872a9.34 9.34 0 0 0 2.498-1.093l15.613-9.898c2.55-1.637 5.343-2.864 8.274-3.638 13.092-3.41 27 1.746 34.707 12.865 4.682 6.546 6.53 14.713 5.12 22.638a28.11 28.11 0 0 1-12.692 18.828l-40.733 25.948c-2.558 1.624-5.348 2.85-8.275 3.638" fill="#fff"/><path d="M846.713 0h128.72c12.67 0 23.008 10.285 23.008 23.01v128.773c0 12.67-10.285 23.01-23.008 23.01h-128.72c-12.67 0-23.008-10.285-23.008-23.01V22.956C823.705 10.285 834 0 846.713 0z" fill="url(#A)"/><path d="M903.608 44.162c-27.25 0-49.357 22.107-49.357 49.4s22.107 49.356 49.357 49.356 49.357-22.107 49.357-49.4-22.054-49.356-49.357-49.356zm0 84.187c-19.19 0-34.778-15.586-34.778-34.777s15.587-34.778 34.778-34.778 34.778 15.586 34.778 34.778-15.533 34.777-34.778 34.777zm0-62.45v25.924c0 .742.795 1.272 1.485.9L928.1 80.795c.53-.265.69-.9.424-1.432-4.77-8.376-13.625-14.102-23.857-14.473-.53 0-1.06.424-1.06 1.008zm-32.233-19.033l-3.022-3.022c-2.97-2.968-7.74-2.968-10.71 0l-3.605 3.605a7.55 7.55 0 0 0 0 10.709l2.97 2.97c.477.477 1.166.37 1.6-.106 1.75-2.385 3.658-4.665 5.78-6.786 2.174-2.173 4.4-4.082 6.84-5.83.53-.318.583-1.06.16-1.538zm48.403-7.846v-5.99a7.58 7.58 0 0 0-7.581-7.581h-17.654a7.58 7.58 0 0 0-7.582 7.581v6.15c0 .69.637 1.166 1.326 1.007a55.26 55.26 0 0 1 15.374-2.173c5.037 0 10.02.69 14.844 2.014.637.16 1.273-.318 1.273-1.007z" fill="#fff"/><path d="M1230.95 133.863c0 14.155-3.605 24.493-10.868 31.067s-18.343 9.86-33.294 9.86c-5.46 0-16.805-1.06-25.87-3.075l3.34-16.435c7.58 1.6 17.6 2.015 22.85 2.015 8.324 0 14.26-1.697 17.813-5.1s5.302-8.43 5.302-15.11v-3.393c-2.068 1.007-4.77 2.014-8.11 3.075-3.34 1.007-7.2 1.537-11.558 1.537-5.725 0-10.92-.9-15.64-2.704s-8.8-4.453-12.14-7.952-6-7.9-7.846-13.148-2.8-14.632-2.8-21.524c0-6.467 1.008-14.58 2.97-19.986 2.015-5.408 4.878-10.073 8.748-13.943 3.817-3.87 8.482-6.84 13.943-9.013s11.875-3.552 18.82-3.552c6.733 0 12.936.848 18.98 1.856s11.187 2.067 15.375 3.234v82.28zm-57.628-40.928c0 8.695 1.91 18.344 5.726 22.373s8.748 6.043 14.79 6.043c3.287 0 6.415-.477 9.33-1.378s5.248-1.962 7.104-3.234V65.26c-1.484-.318-7.687-1.6-13.678-1.75-7.528-.212-13.254 2.863-17.283 7.793-3.976 4.93-5.99 13.572-5.99 21.63zm156.024 0c0 6.998-1.008 12.3-3.075 18.078s-4.984 10.71-8.748 14.792-8.27 7.263-13.572 9.49-13.465 3.5-17.547 3.5c-4.083-.053-12.194-1.22-17.442-3.5s-9.755-5.407-13.52-9.49-6.68-9.013-8.8-14.792-3.18-11.08-3.18-18.078.955-13.73 3.075-19.456 5.1-10.603 8.907-14.685 8.376-7.2 13.572-9.437c5.248-2.227 11.027-3.287 17.282-3.287s12.035 1.113 17.336 3.287c5.302 2.227 9.86 5.354 13.572 9.437 3.764 4.082 6.68 8.96 8.8 14.685 2.226 5.725 3.34 12.458 3.34 19.456zm-21.206.053c0-8.96-1.962-16.434-5.78-21.63-3.817-5.248-9.172-7.846-16.01-7.846s-12.193 2.598-16 7.846-5.673 12.67-5.673 21.63c0 9.066 1.91 15.163 5.726 20.41 3.817 5.302 9.172 7.9 16.01 7.9s12.193-2.65 16-7.9c3.817-5.3 5.726-11.345 5.726-20.41zm67.382 45.805c-33.983.16-33.983-27.46-33.983-31.862l-.053-97.97 20.73-3.287v97.335c0 2.492 0 18.3 13.307 18.343v17.442zm36.527 0h-20.835v-89.49l20.835-3.287v92.776zM1401.605 36.21c6.945 0 12.618-5.62 12.618-12.564s-5.62-12.565-12.618-12.565-12.617 5.62-12.617 12.565 5.672 12.564 12.617 12.564zm62.24 9.86c6.84 0 12.617.848 17.283 2.545s8.43 4.082 11.186 7.104 4.718 7.157 5.884 11.504c1.22 4.347 1.803 9.12 1.803 14.367v53.333c-3.18.69-8.005 1.485-14.473 2.44s-13.73 1.43-21.79 1.43c-5.355 0-10.285-.53-14.685-1.537-4.454-1.007-8.218-2.65-11.4-4.93-3.128-2.28-5.566-5.195-7.37-8.8-1.75-3.605-2.65-8.694-2.65-13.996 0-5.09 1.007-8.323 2.968-11.822a25.16 25.16 0 0 1 8.112-8.589c3.446-2.226 7.37-3.817 11.875-4.77s9.225-1.432 14.102-1.432c2.28 0 4.665.16 7.2.425s5.196.742 8.058 1.43v-3.393c0-2.386-.265-4.665-.848-6.786a14.54 14.54 0 0 0-2.969-5.672c-1.43-1.644-3.287-2.916-5.62-3.818s-5.302-1.6-8.854-1.6c-4.77 0-9.118.583-13.095 1.272s-7.263 1.485-9.754 2.386l-2.492-17.018c2.598-.9 6.468-1.802 11.45-2.704s10.338-1.378 16.064-1.378zm1.75 75.228c6.362 0 11.08-.37 14.367-1.007v-21.1c-1.166-.318-2.81-.69-4.983-1.007s-4.56-.53-7.2-.53c-2.28 0-4.612.16-6.945.53-2.333.318-4.453.954-6.31 1.855s-3.393 2.174-4.506 3.817c-1.166 1.644-1.697 2.598-1.697 5.1 0 4.877 1.697 7.687 4.772 9.543 3.128 1.908 7.263 2.81 12.51 2.81zM1056.212 46.6c6.84 0 12.618.848 17.283 2.545s8.43 4.082 11.186 7.104c2.8 3.075 4.72 7.157 5.885 11.504 1.22 4.347 1.803 9.12 1.803 14.367v53.333c-3.18.7-8.006 1.485-14.474 2.44s-13.73 1.43-21.79 1.43c-5.354 0-10.285-.53-14.685-1.537-4.453-1.007-8.217-2.65-11.398-4.93-3.128-2.28-5.567-5.196-7.37-8.8-1.75-3.605-2.65-8.694-2.65-13.996 0-5.09 1.007-8.323 2.97-11.822 2.014-3.5 4.718-6.362 8.11-8.59 3.446-2.226 7.37-3.817 11.876-4.77s9.224-1.43 14.102-1.43c2.28 0 4.665.16 7.2.424 2.49.265 5.195.742 8.058 1.43v-3.393c0-2.385-.265-4.665-.848-6.786-.584-2.173-1.59-4.03-2.97-5.672-1.432-1.644-3.287-2.916-5.62-3.817s-5.3-1.59-8.853-1.59c-4.772 0-9.12.583-13.095 1.272s-7.263 1.485-9.755 2.386l-2.49-17.018c2.597-.9 6.467-1.802 11.45-2.703 4.983-.955 10.338-1.38 16.063-1.38zm1.803 75.282c6.362 0 11.08-.372 14.367-1.008v-21.1c-1.166-.318-2.8-.69-4.984-1.007s-4.56-.53-7.2-.53c-2.28 0-4.612.16-6.945.53-2.332.318-4.453.954-6.308 1.855s-3.393 2.174-4.507 3.818c-1.166 1.643-1.696 2.597-1.696 5.09 0 4.877 1.696 7.687 4.77 9.543s7.263 2.8 12.512 2.8zm84.03 16.91c-33.983.16-33.983-27.46-33.983-31.862l-.053-97.97 20.73-3.287v97.335c0 2.492 0 18.3 13.307 18.343v17.442z" fill="#182359"/></g><text x="704.376" y="143.357" font-family="ArialMT, Arial, sans-serif" font-size="156.25">+</text><defs><linearGradient id="A" x1="757.742" y1="235.855" x2="1051.281" y2="-48.417" gradientUnits="userSpaceOnUse"><stop offset="0" stop-color="#00aeff"/><stop offset="1" stop-color="#3369e7"/></linearGradient></defs></svg>